<svg xmlns="http://www.w3.org/2000/svg" viewBox="0 0 1024 1024"><defs>
    <linearGradient id="main" x1="0" y1="0" x2="1" y2="1"><stop offset="0" stop-color="#3E7BFA"/><stop offset="0.55" stop-color="#2BA6F2"/><stop offset="1" stop-color="#19D3D8"/></linearGradient>
    <linearGradient id="glass" x1="0" y1="0" x2="0" y2="1">
      <stop offset="0" stop-color="#FFFFFF" stop-opacity="0.40"/>
      <stop offset="0.55" stop-color="#FFFFFF" stop-opacity="0"/>
    </linearGradient>
    <filter id="shadow" x="-30%" y="-30%" width="160%" height="160%">
      <feDropShadow dx="0" dy="20" stdDeviation="30" flood-color="#0A1B3D" flood-opacity="0.30"/>
    </filter>
    <filter id="wsh" x="-40%" y="-40%" width="180%" height="180%">
      <feDropShadow dx="0" dy="6" stdDeviation="10" flood-color="#0A1B3D" flood-opacity="0.20"/>
    </filter>
      <clipPath id="cl2"><rect x="392" y="196" width="468" height="372" rx="78"/></clipPath></defs>
      <path d="M 250 705 A 95 95 0 0 1 345 800" stroke="url(#main)" stroke-width="34" fill="none" stroke-linecap="round" opacity="1.0"/><path d="M 250 628 A 172 172 0 0 1 422 800" stroke="url(#main)" stroke-width="34" fill="none" stroke-linecap="round" opacity="0.85"/><path d="M 250 551 A 249 249 0 0 1 499 800" stroke="url(#main)" stroke-width="34" fill="none" stroke-linecap="round" opacity="0.7"/>
      <circle cx="250" cy="800" r="30" fill="url(#main)"/>
      <rect x="392" y="196" width="468" height="372" rx="78" fill="url(#main)" filter="url(#shadow)"/>
      <g clip-path="url(#cl2)"><rect x="392" y="196" width="468" height="240" fill="url(#glass)"/></g>
      <rect x="392" y="196" width="468" height="372" rx="78" fill="none" stroke="#FFFFFF" stroke-opacity="0.20" stroke-width="3"/>
      <path d="M 582.0 324.0 L 582.0 440.0 L 698.0 382.0 Z"
            fill="#FFFFFF" stroke="#FFFFFF" stroke-width="30" stroke-linejoin="round" opacity="0.96"/>
    </svg>