<svg xmlns="http://www.w3.org/2000/svg" viewBox="0 0 1024 1024"><defs>
    <linearGradient id="main" x1="0" y1="0" x2="1" y2="1"><stop offset="0" stop-color="#3E7BFA"/><stop offset="0.55" stop-color="#2BA6F2"/><stop offset="1" stop-color="#19D3D8"/></linearGradient>
    <linearGradient id="glass" x1="0" y1="0" x2="0" y2="1">
      <stop offset="0" stop-color="#FFFFFF" stop-opacity="0.40"/>
      <stop offset="0.55" stop-color="#FFFFFF" stop-opacity="0"/>
    </linearGradient>
    <filter id="shadow" x="-30%" y="-30%" width="160%" height="160%">
      <feDropShadow dx="0" dy="20" stdDeviation="30" flood-color="#0A1B3D" flood-opacity="0.30"/>
    </filter>
    <filter id="wsh" x="-40%" y="-40%" width="180%" height="180%">
      <feDropShadow dx="0" dy="6" stdDeviation="10" flood-color="#0A1B3D" flood-opacity="0.20"/>
    </filter>
      <clipPath id="cl"><rect x="170" y="232" width="684" height="516" rx="120"/></clipPath></defs>
      <rect x="170" y="232" width="684" height="516" rx="120" fill="url(#main)" filter="url(#shadow)"/>
      <g clip-path="url(#cl)"><rect x="170" y="232" width="684" height="320" fill="url(#glass)"/></g>
      <rect x="216" y="278" width="592" height="424" rx="80" fill="none" stroke="#FFFFFF" stroke-opacity="0.28" stroke-width="5"/>
      <path d="M 312 554 A 78 78 0 0 1 390 632" stroke="#FFFFFF" stroke-width="30" fill="none" stroke-linecap="round" opacity="1.0" filter="url(#wsh)"/><path d="M 312 482 A 150 150 0 0 1 462 632" stroke="#FFFFFF" stroke-width="30" fill="none" stroke-linecap="round" opacity="0.9" filter="url(#wsh)"/><path d="M 312 410 A 222 222 0 0 1 534 632" stroke="#FFFFFF" stroke-width="30" fill="none" stroke-linecap="round" opacity="0.78" filter="url(#wsh)"/>
      <circle cx="312" cy="632" r="26" fill="#FFFFFF" filter="url(#wsh)"/>
      <rect x="170" y="232" width="684" height="516" rx="120" fill="none" stroke="#FFFFFF" stroke-opacity="0.18" stroke-width="3"/>
    </svg>