<svg xmlns="http://www.w3.org/2000/svg" viewBox="0 0 1024 1024"><defs>
      <linearGradient id="main" x1="0" y1="0" x2="1" y2="1"><stop offset="0" stop-color="#1FA2FF"/><stop offset="0.5" stop-color="#12C2C2"/><stop offset="1" stop-color="#22D39A"/></linearGradient>
      <linearGradient id="glass" x1="0" y1="0" x2="0" y2="1">
        <stop offset="0" stop-color="#FFFFFF" stop-opacity="0.34"/>
        <stop offset="0.55" stop-color="#FFFFFF" stop-opacity="0"/>
      </linearGradient>
      <filter id="shadow" x="-30%" y="-30%" width="160%" height="160%">
        <feDropShadow dx="0" dy="22" stdDeviation="34" flood-color="#0A1B3D" flood-opacity="0.32"/>
      </filter>
      <filter id="gsh" x="-40%" y="-40%" width="180%" height="180%">
        <feDropShadow dx="0" dy="6" stdDeviation="9" flood-color="#06102A" flood-opacity="0.28"/>
      </filter>
      <clipPath id="cl"><rect x="150" y="150" width="724" height="724" rx="176"/></clipPath></defs>
      <rect x="150" y="150" width="724" height="724" rx="176" fill="url(#main)" filter="url(#shadow)"/>
      <g clip-path="url(#cl)"><rect x="150" y="150" width="724" height="380" fill="url(#glass)"/></g>
      <rect x="150" y="150" width="724" height="724" rx="176" fill="none" stroke="#FFFFFF" stroke-opacity="0.16" stroke-width="3"/>
      <path d="M 402 380 A 52 52 0 0 0 350 432" stroke="#FFFFFF" stroke-width="30" fill="none" stroke-linecap="round" opacity="1.0" filter="url(#gsh)"/><path d="M 402 334 A 98 98 0 0 0 304 432" stroke="#FFFFFF" stroke-width="30" fill="none" stroke-linecap="round" opacity="0.92" filter="url(#gsh)"/><path d="M 402 288 A 144 144 0 0 0 258 432" stroke="#FFFFFF" stroke-width="30" fill="none" stroke-linecap="round" opacity="0.82" filter="url(#gsh)"/><circle cx="402" cy="432" r="19" fill="#FFFFFF" filter="url(#gsh)"/>
      <g fill="none" stroke="#FFFFFF" stroke-linecap="round" stroke-linejoin="round" filter="url(#gsh)">
        <rect x="372" y="398" width="384" height="280" rx="46" stroke-width="36"/>
        <path d="M 564.0 678 L 564.0 722" stroke-width="30"/>
        <path d="M 494.0 728 L 634.0 728" stroke-width="30"/>
      </g>
    </svg>