<svg xmlns="http://www.w3.org/2000/svg" viewBox="0 0 1024 1024"><defs>
      <linearGradient id="base" x1="0.1" y1="0" x2="0.9" y2="1"><stop offset="0" stop-color="#8A86F0"/><stop offset="1" stop-color="#5566E6"/></linearGradient>
      <linearGradient id="topHi" x1="0" y1="0" x2="0" y2="1">
        <stop offset="0" stop-color="#FFFFFF" stop-opacity="0.28"/>
        <stop offset="0.5" stop-color="#FFFFFF" stop-opacity="0"/>
      </linearGradient>
      <linearGradient id="botSh" x1="0" y1="0" x2="0" y2="1">
        <stop offset="0.62" stop-color="#000018" stop-opacity="0"/>
        <stop offset="1" stop-color="#001028" stop-opacity="0.20"/>
      </linearGradient>
      <linearGradient id="screen" x1="0" y1="0" x2="0" y2="1">
        <stop offset="0" stop-color="#FFFFFF"/>
        <stop offset="1" stop-color="#E7F1FC"/>
      </linearGradient>
      <filter id="drop" x="-40%" y="-40%" width="180%" height="180%">
        <feDropShadow dx="0" dy="10" stdDeviation="16" flood-color="#06183A" flood-opacity="0.22"/>
      </filter>
      <filter id="baseDrop" x="-30%" y="-30%" width="160%" height="160%">
        <feDropShadow dx="0" dy="20" stdDeviation="30" flood-color="#0A1B3D" flood-opacity="0.28"/>
      </filter>
      <clipPath id="clip"><rect x="130" y="130" width="764" height="764" rx="184"/></clipPath></defs>
      <rect x="130" y="130" width="764" height="764" rx="184" fill="url(#base)" filter="url(#baseDrop)"/>
      <g clip-path="url(#clip)">
        <rect x="130" y="130" width="764" height="764" fill="url(#topHi)"/>
        <rect x="130" y="130" width="764" height="764" fill="url(#botSh)"/>
      </g>
      <rect x="130" y="130" width="764" height="764" rx="184" fill="none" stroke="#FFFFFF" stroke-opacity="0.14" stroke-width="3"/>
      <path d="M 410 378 A 54 54 0 0 0 356 432" stroke="url(#screen)" stroke-width="34" fill="none" stroke-linecap="round" opacity="1.0" filter="url(#drop)"/><path d="M 410 328 A 104 104 0 0 0 306 432" stroke="url(#screen)" stroke-width="34" fill="none" stroke-linecap="round" opacity="0.94" filter="url(#drop)"/><path d="M 410 278 A 154 154 0 0 0 256 432" stroke="url(#screen)" stroke-width="34" fill="none" stroke-linecap="round" opacity="0.86" filter="url(#drop)"/><circle cx="410" cy="432" r="21" fill="url(#screen)" filter="url(#drop)"/>
      <g filter="url(#drop)">
        <rect x="384" y="402" width="372" height="266" rx="40" fill="url(#screen)"/>
        <rect x="551.0" y="662" width="38" height="52" rx="14" fill="url(#screen)"/>
        <rect x="492.0" y="708" width="156" height="26" rx="13" fill="url(#screen)"/>
      </g>
      <clipPath id="scl"><rect x="384" y="402" width="372" height="266" rx="40"/></clipPath>
      <g clip-path="url(#scl)"><rect x="384" y="402" width="372" height="30" fill="#9DB8D8" opacity="0.25"/></g>
    </svg>